<svg width="28" height="28" viewBox="0 0 28 28" fill="none" xmlns="http://www.w3.org/2000/svg">
<path fill-rule="evenodd" clip-rule="evenodd" d="M27.9997 27.9999C27.9997 12.5609 15.4389 0 0.00012207 0V5.33297C12.4989 5.33297 22.6668 15.5009 22.6668 27.9999H27.9997ZM0.000366211 24C0.000366211 26.209 1.79134 28 4.0003 28C6.20927 28 8.00024 26.209 8.00024 24C8.00024 21.791 6.20927 20 4.0003 20C1.79134 20 0.000366211 21.791 0.000366211 24ZM0 9.33325C10.2928 9.33325 18.6667 17.7072 18.6667 28.0002H13.3338C13.3338 20.6482 7.35188 14.6672 0 14.6672V9.33325Z" fill="white"/>
</svg>
